/* XPM */
static char *bitcoin32[] = {
/* columns rows colors chars-per-pixel */
"32 32 145 2 ",
"   c #845320",
".  c #8A5722",
"X  c #8D5B24",
"o  c #886323",
"O  c #876924",
"+  c #8A6C25",
"@  c #956226",
"#  c #9A6527",
"$  c #956C26",
"%  c #9B6B26",
"&  c #9E6828",
"*  c #8F7126",
"=  c #947427",
"-  c #9A7627",
";  c #9D7827",
":  c #94772A",
">  c #9A7728",
",  c #9A7D29",
"<  c #987B32",
"1  c #A46527",
"2  c #A86527",
"3  c #A36827",
"4  c #A36928",
"5  c #AB6C29",
"6  c #B26F29",
"7  c #A17226",
"8  c #A57D27",
"9  c #A97E27",
"0  c #A5742B",
"q  c #AD732A",
"w  c #A27C29",
"e  c #AB7A28",
"r  c #B2732A",
"t  c #B4792B",
"y  c #BB7D2A",
"u  c #B57930",
"i  c #C07E2A",
"p  c #9E822B",
"a  c #A1862C",
"s  c #A4892E",
"d  c #A88D2F",
"f  c #BE822A",
"g  c #AA8E30",
"h  c #A0863E",
"j  c #AE9131",
"k  c #AC923F",
"l  c #B39533",
"z  c #B79834",
"x  c #BD9D36",
"c  c #BE9D3A",
"v  c #C3842B",
"b  c #C68D2A",
"n  c #CB8B2B",
"m  c #D18F29",
"M  c #CE902A",
"N  c #D2942C",
"B  c #D7982B",
"V  c #D99A2C",
"C  c #C09F3D",
"Z  c #D49631",
"A  c #D69831",
"S  c #DA9C34",
"D  c #C1A13E",
"F  c #DEA23B",
"G  c #E0A53E",
"H  c #9A894C",
"J  c #A08F4E",
"K  c #A5924E",
"L  c #AB964E",
"P  c #AD984F",
"I  c #A69450",
"U  c #A89650",
"Y  c #AD9A51",
"T  c #B29D52",
"R  c #B5A053",
"E  c #BDA553",
"W  c #BFA956",
"Q  c #BDA55B",
"!  c #AC9F6D",
"~  c #B8AA73",
"^  c #C5A543",
"/  c #C9A947",
"(  c #C4A74F",
")  c #CCAD4A",
"_  c #D1B24E",
"`  c #C2A652",
"'  c #C5AA54",
"]  c #CAAE54",
"[  c #C0A559",
"{  c #C5AB5A",
"}  c #C9AD5C",
"|  c #CCB154",
" . c #CDB35C",
".. c #D5B756",
"X. c #D0B75A",
"o. c #D6B958",
"O. c #DBBE59",
"+. c #E1A740",
"@. c #C5AC64",
"#. c #C9AF63",
"$. c #CEB264",
"%. c #C6B26F",
"&. c #CDB36A",
"*. c #D3B763",
"=. c #DABD66",
"-. c #D0B66D",
";. c #C6B477",
":. c #CCB875",
">. c #C4B37A",
",. c #C8B678",
"<. c #CBB97D",
"1. c #D2B975",
"2. c #D6BF7D",
"3. c #DEC05B",
"4. c #E2C55D",
"5. c #E5C95F",
"6. c #DEC369",
"7. c #DCC371",
"8. c #DDC57F",
"9. c #E7CB60",
"0. c #E9CD61",
"q. c #E1C56C",
"w. c #E8CE6B",
"e. c #EDD264",
"r. c #EBD16C",
"t. c #E0C773",
"y. c #E2C977",
"u. c #E9CE72",
"i. c #E4CB78",
"p. c #EDD375",
"a. c #EDD47B",
"s. c #EFD87F",
"d. c #F0D778",
"f. c #F0D87B",
"g. c #BEB284",
"h. c #C6B782",
"j. c #D1BC80",
"k. c #DCCB8B",
"l. c #E1CA85",
"z. c #E3CD88",
"x. c #ECD481",
"c. c #EAD58B",
"v. c #F1DA84",
"b. c #EFDB90",
"n. c None",
/* pixels */
"n.n.n.n.n.n.n.n.n.n.n.n.n.n.n.n.n.n.n.n.n.n.n.n.n.n.n.n.n.n.n.n.",
"n.n.n.n.n.n.n.n.n.n.n.n.j.<.>.>.;.:.%.&.n.n.n.n.n.n.n.n.n.n.n.n.",
"n.n.n.n.n.n.n.n.n.l.c.k.g.h.h.j.<.;.~ ! 7.u.q.n.n.n.n.n.n.n.n.n.",
"n.n.n.n.n.n.n.8.c.b.b.z.2.1.-.&.&.$.&.-.t.d.d.u.=.n.n.n.n.n.n.n.",
"n.n.n.n.n.n.3.r.p.6.} ` Q @.@.@.#.#.} } { $.q.d.p.q.n.n.n.n.n.n.",
"n.n.n.n.n.3.e.0.) z l d , : < h P Q @.} } { ' *.p.d.q.n.n.n.n.n.",
"n.n.n.n.O.e.9./ x l p o   X @ # $ : L ( } #.} ' } u.d.6.n.n.n.n.",
"n.n.n...e.0.^ x z s o   X & 0 e t e - a c ` } } {  .p.d.=.n.n.n.",
"n.n.n.9.e.) x x j *   X # & t y y r e > s z D / } ' *.d.u.n.n.n.",
"n.n.O.e.O.C x x a o . # & e y f v v v t > j z x ^ } { q.f.q.n.n.",
"n.n.9.0.D x C j = . @ # 3 r t y v n v v 9 p l x C C / #.a.p.n.n.",
"n.n.e.4.x x x j + X @ 3 q y f y n N v v t - d z C C C ( y.v.7.n.",
"n.3.e._ c C x j + @ & 3 5 f v M N N N b v 9 ; l z C C x *.v.i.n.",
"n.5.e.^ x x x j O @ & 3 r f n m N N N n y f ; j z x C x ^ x.x.n.",
"n.9.0.D C C z j + # 3 3 r y n M n N N n 6 i 9 p z C x C C w.x.n.",
"n.0.9.C x C x j + % 7 5 r y n N A S B N v v f p l b C x C 5.a.n.",
"n.0.e.D x x x l = % 5 5 5 y n A F F S B N m b ; j x x x C 5.e.n.",
"n.5.e.D x C x l , % 5 5 r y n A F G F S B N m 9 d x x x C 0.0.n.",
"n.5.e.D x x x z p $ 5 2 5 t v Z F G G S V B m 9 d x C x ^ e.5.n.",
"n.4.e._ x x x x s * q 5 2 5 i M S G G F N m m 9 d z x x ) e.5.n.",
"n...X.] c C x x l = q q 5 5 y n N F F F N m M p j x C x | X...n.",
"n.n.U R ^ x C x l p % r 2 6 y v n N M S A N f a l x x ^ T K n.n.",
"n.n.' K ] c x x x j > u 6 5 t y v n v Z A N 9 s z C c | H E n.n.",
"n.n.n.P T ) x c x z s 0 t 6 6 r y v n N N b w j x x / ` K n.n.n.",
"n.n.n.' U ] ^ x C x l a 0 r 5 r t y v v f p s z x D ' W ] n.n.n.",
"n.n.n.n.' K ' ^ x x x j a - 3 2 5 5 5 7 , s x x ^ _ U E n.n.n.n.",
"n.n.n.n.n.E R X.) x x x l d p $ % % - a j z x / ' U E n.n.n.n.n.",
"n.n.n.n.n.n.] Y T | ^ x x z l l j d l z x D ] R J E n.n.n.n.n.n.",
"n.n.n.n.n.n.n.' K H R | ) ^ D c c c ^ / ] ' J T ' n.n.n.n.n.n.n.",
"n.n.n.n.n.n.n.n.n.E T U I T E ' ' E { Y U R ' n.n.n.n.n.n.n.n.n.",
"n.n.n.n.n.n.n.n.n.n.n.] E T T T Y T | W ] n.n.n.n.n.n.n.n.n.n.n.",
"n.n.n.n.n.n.n.n.n.n.n.n.n.n.n.n.n.n.n.n.n.n.n.n.n.n.n.n.n.n.n.n."
};
