/* XPM */
static char *bitcoin256[] = {
/* columns rows colors chars-per-pixel */
"48 48 201 2 ",
"   c #7E7143",
".  c #834F1F",
"X  c #81561F",
"o  c #865221",
"O  c #8A5723",
"+  c #855C23",
"@  c #8B5B23",
"#  c #915E25",
"$  c #9F5A25",
"%  c #866422",
"&  c #8C6523",
"*  c #876F24",
"=  c #8A6C24",
"-  c #956325",
";  c #9A6427",
":  c #926D24",
">  c #9D6A26",
",  c #9D6728",
"<  c #9E6928",
"1  c #8C7225",
"2  c #8D7128",
"3  c #947425",
"4  c #9B7326",
"5  c #947927",
"6  c #9B7925",
"7  c #967228",
"8  c #9E742A",
"9  c #957C28",
"0  c #987F29",
"q  c #957C31",
"w  c #A56227",
"e  c #A26D26",
"r  c #A06728",
"t  c #A86328",
"y  c #A46C28",
"u  c #AC6C29",
"i  c #B16C29",
"p  c #A47526",
"a  c #A37B25",
"s  c #AA7A27",
"d  c #A5722A",
"f  c #AC712A",
"g  c #AF782B",
"h  c #B3742A",
"j  c #BB7629",
"k  c #B57A2B",
"l  c #BB7C2A",
"z  c #BB7C33",
"x  c #C17C2A",
"c  c #837545",
"v  c #8B7C47",
"b  c #8D7E48",
"n  c #9C832B",
"m  c #9C8431",
"M  c #A0862D",
"N  c #A48A2E",
"B  c #A88D2F",
"V  c #B38126",
"C  c #BB8327",
"Z  c #BD812A",
"A  c #A68B30",
"S  c #AA8E30",
"D  c #AE9131",
"F  c #AF953F",
"G  c #B49533",
"H  c #B89736",
"J  c #B79834",
"K  c #BD9C36",
"L  c #B1953A",
"P  c #B5983D",
"I  c #BC9B3C",
"U  c #C3852B",
"Y  c #CA862A",
"T  c #C6882A",
"R  c #CB8C2B",
"E  c #CF912B",
"W  c #D3942B",
"Q  c #D6982C",
"!  c #D99A2C",
"~  c #C09F3A",
"^  c #D39430",
"/  c #D69932",
"(  c #D99C34",
")  c #DC9F38",
"_  c #C0A13E",
"`  c #DDA037",
"'  c #DEA23B",
"]  c #E0A53E",
"[  c #8F8049",
"{  c #94854A",
"}  c #9B8B4C",
"|  c #A38C40",
" . c #A08F4E",
".. c #AF9746",
"X. c #A4924E",
"o. c #A8964F",
"O. c #B09642",
"+. c #BE9D41",
"@. c #A99650",
"#. c #AD9A51",
"$. c #B29D52",
"%. c #B5A154",
"&. c #BBA554",
"*. c #BEA855",
"=. c #BBA35B",
"-. c #938A66",
";. c #A2976C",
":. c #A79B6F",
">. c #BEA761",
",. c #AFA57F",
"<. c #B6A976",
"1. c #B8AA76",
"2. c #BAAD7C",
"3. c #BEB07C",
"4. c #C3A243",
"5. c #C3A64D",
"6. c #C8A74B",
"7. c #C6A84F",
"8. c #CCAC4C",
"9. c #CFB04F",
"0. c #D0B14F",
"q. c #C4A655",
"w. c #C4AA55",
"e. c #CBAD53",
"r. c #C5A758",
"t. c #C5AC5A",
"y. c #CAAD5C",
"u. c #CDB155",
"i. c #CCB35A",
"p. c #D3B453",
"a. c #D7B956",
"s. c #D9BB57",
"d. c #D0B15E",
"f. c #D5BB5B",
"g. c #DABD5A",
"h. c #E1A740",
"j. c #C5AB62",
"k. c #C9AE63",
"l. c #C7AF69",
"z. c #C9AF69",
"x. c #CBB063",
"c. c #D3B563",
"v. c #D5B865",
"b. c #D3B768",
"n. c #D5BA6B",
"m. c #D9BD69",
"M. c #C3B274",
"N. c #CDB270",
"B. c #CEBA72",
"V. c #C1B27E",
"C. c #CCBB7C",
"Z. c #D7BD74",
"A. c #D9BE74",
"S. c #D4BD7B",
"D. c #DDC15C",
"F. c #E2C55D",
"G. c #E5C85F",
"H. c #DDC062",
"J. c #DFC369",
"K. c #D7C077",
"L. c #DCC275",
"P. c #D6C279",
"I. c #DBC37B",
"U. c #E0C761",
"Y. c #E6CB60",
"T. c #E9CE62",
"R. c #E1C66C",
"E. c #E5CA6D",
"W. c #EDD264",
"Q. c #EED468",
"!. c #E0C673",
"~. c #E6CC74",
"^. c #E8CE73",
"/. c #E0C77C",
"(. c #E4CC7C",
"). c #E8CF7A",
"_. c #EED474",
"`. c #EDD57A",
"'. c #EFD87F",
"]. c #F0D777",
"[. c #F0D877",
"{. c #F0D779",
"}. c #F0D87D",
"|. c #ADA480",
" X c #BCB081",
".X c #C6B680",
"XX c #CBBB80",
"oX c #D2BF82",
"OX c #DBC581",
"+X c #DEC985",
"@X c #D3C389",
"#X c #D8C788",
"$X c #E0C984",
"%X c #E2CF8B",
"&X c #EFD883",
"*X c #E6D089",
"=X c #EBD68D",
"-X c #EED98F",
";X c #F1DA83",
":X c #F0DC91",
">X c None",
/* pixels */
">X>X>X>X>X>X>X>X>X>X>X>X>X>X>X>X>X>X>X>X>X>X>X>X>X>X>X>X>X>X>X>X>X>X>X>X>X>X>X>X>X>X>X>X>X>X>X>X",
">X>X>X>X>X>X>X>X>X>X>X>X>X>X>X>X>X>X>X>X>XZ.Z.Z.A.A.n.>X>X>X>X>X>X>X>X>X>X>X>X>X>X>X>X>X>X>X>X>X",
">X>X>X>X>X>X>X>X>X>X>X>X>X>X>X>X>XOXOXoX.XV.3.2.<.S.M.M.B.n.m.x.>X>X>X>X>X>X>X>X>X>X>X>X>X>X>X>X",
">X>X>X>X>X>X>X>X>X>X>X>X>X>XOX*X-X@X|.|. X2.2.XX2.C.2.:.;.-.B._.E.v.>X>X>X>X>X>X>X>X>X>X>X>X>X>X",
">X>X>X>X>X>X>X>X>X>X>X>XoX*X-X:X-X%X@X#X+XI.I.L.A.I.A.S.P.M.I.{.].].E.c.>X>X>X>X>X>X>X>X>X>X>X>X",
">X>X>X>X>X>X>X>X>X>X>X$X-X:X:X:X=X+XS.N.z.z.l.k.k.k.t.y.k.b.J.).'.].]._.R.>X>X>X>X>X>X>X>X>X>X>X",
">X>X>X>X>X>X>X>X>Xe.E._.].].^.b.j.j.j.l.z.z.z.l.k.k.k.x.y.y.r.t.v.).].].].E.d.>X>X>X>X>X>X>X>X>X",
">X>X>X>X>X>X>X>X8.Y.W.W.T.a.K J H H L F ..$.=.>.j.l.k.k.k.k.y.y.r.r.m._.].].^.c.>X>X>X>X>X>X>X>X",
">X>X>X>X>X>X>Xe.T.W.W.Y.6.J J G D m 9 2 = * 2 q | $.=.l.k.k.x.y.y.t.w.y.^.'.]._.d.>X>X>X>X>X>X>X",
">X>X>X>X>X>X6.Y.W.W.G.4.J K J S 9 = o o @ - - - & = m O.&.t.k.y.y.y.e.q.r.~.].]._.c.>X>X>X>X>X>X",
">X>X>X>X>X>XG.W.W.F.~ H K G B 5 + . o # ; r y d f < : 9 A P 5.y.x.y.y.e.e.q.~.].].E.>X>X>X>X>X>X",
">X>X>X>X>Xs.W.W.Y.4.K K J D n % o . @ - y d g k k k g 4 5 N G I 5.y.y.y.y.w.q.^.{.].R.>X>X>X>X>X",
">X>X>X>Xe.W.W.T.6.H ~ J G N = @ @ @ ; ; , g k k k k k g 4 5 A G K _ 6.y.y.y.q.y.`.]._.v.>X>X>X>X",
">X>X>X>XF.W.W.a.H ~ K K S 6 % . @ - , r d k Z Z Z Z h Z k 4 9 A G K K 4.e.y.y.q.m.'.].^.>X>X>X>X",
">X>X>Xu.T.W.Y.I ~ K K J N = @ @ # ; r d g l Z U U T U Z U k 7 0 D J K K ~ 5.y.y.r.~.'.].m.>X>X>X",
">X>X>XF.W.W.0.K ~ ~ J D n % @ # ; ; ; f k k l U U R R T U Z k : N D K K ~ ~ 4.y.r.b.;X'.^.>X>X>X",
">X>X8.T.W.T.K K ~ K K D 5 + # - ; , y i k k k i U R E T Z U Z p 5 D J K K ~ K _ 9.t.).;X`.b.>X>X",
">X>Xa.W.W.p.J ~ ~ K H S 1 + # ; ; r f g l U Z U R E W E l U l f 3 M D K K K K K _ 7.m.;X'.!.>X>X",
">X>XF.W.W._ K ~ K K J S * + ; , ; y f k Z U T E W W W W R R U k a 5 S J K ~ ~ K K ~ x.&X;X).>X>X",
">X>XT.W.T.~ K ~ K K J S * + , , ; t f l Z T E Q Q W W W E R U U C 3 N G K K K ~ ~ ~ +.).;X'.>X>X",
">Xe.T.W.F.J ~ ~ K K J S * + , , , y i l U Y E E W W W W E T j U x p 6 D K K K K K ~ J D.}.;XA.>X",
">Xp.W.W.s.J ~ K K K J S 1 + , e ; t h k Z Y E R Y E W W E T i j U V 3 N K K K K ~ ~ ~ 0.].;X/.>X",
">Xa.W.W.p.K ~ K ~ K J S 1 + e e < t h k Z Y E E Y ^ Q W W R j i C U 6 M J K K K K K J 8.Q.}./.>X",
">Xg.W.W.0.K ~ ~ K K J D 5 % u e y f i k Z T E / / ) ( Q Q E Y x T R a 0 D K K K ~ ~ K 8.W._./.>X",
">Xg.W.W.u.K ~ ~ K K K D n % u f f u u h l T E ( ' ] ' / ! Q E E R R C 6 B J K K K ~ J 8.W.Q.!.>X",
">Xa.W.W.a.J K ~ ~ ~ K D n % e u u u f j l R E / ' ] ] ' ( ! Q W E R T 3 B J K K ~ ~ K 8.W.W.H.>X",
">Xp.W.Q.a.J ~ ~ K K K G M = e f y t f h Z T E ( ' ' h.] ` ! Q Q W E T 3 N J K K ~ K K a.W.W.a.>X",
">Xe.T.W.F.G ~ K K K K J N 1 e f y t u i l T R / ) ] h.h.` ! ! ! Q Q T 6 N J K K ~ ~ H g.W.W.p.>X",
">X>XT.W.G.~ ~ ~ ~ K K J S 2 ; d u y f f j Z R / ( ] h.h.] ! ! ! ! Q T 3 B J K K K E J F.W.T.>X>X",
">X>XF.W.W._ K E K ~ K K D 9 & f f u u $ t l T E ( ` ] ] ] ` Q Y W W T 3 S J K K ~ K _ T.W.U.>X>X",
">X>Xg.U.D.a.H K ~ K K K G M = u h i u w i l U R ^ ( ' ' ' ' Q Y E W C 9 D J K K K K 0.U.T.D.>X>X",
">X>Xe.%.v D.K K K K K K H S 5 e h h t u h l U Y R ^ ( ( ( ` ! Q W W V n D J K K ~ J D.[ @.p.>X>X",
">X>X>Xu.v t.9.J ~ K ~ K K D n : h h w w i l l T R R E Y ^ ( ( W E T 6 N G K K ~ K 6.u.  *.>X>X>X",
">X>X>Xw.$.} D.K K ~ K ~ K G B 1 d z i u i k l U U R R x R ( ( ^ E C 5 B J K K K K D.} } u.>X>X>X",
">X>X>X>Xu.v t.p.H K ~ K K K D n 7 z k i f i h j l U R R W W W W W a n D K K K H 8.i.c *.>X>X>X>X",
">X>X>X>Xe.#.{ f.4.K K ~ K K J D n 8 z i f f f h l l U T E E E Q C 9 S H K K K +.G.X.} u.>X>X>X>X",
">X>X>X>X>Xu.} @.F.+.K K K K K G B 9 p z i u h i j k l Z T T Y C 6 N D K K K I D.#.i.i.>X>X>X>X>X",
">X>X>X>X>X>Xw.#.%.D.K K ~ K K K G B 9 4 g u u u i h j j l l p 5 M D J K K K g.&.{ u.9.>X>X>X>X>X",
">X>X>X>X>X>X9.$.{ %.D.~ K K K K H J B n 3 < w w t u f f r : 9 N G H K K I g.i.[ &.e.>X>X>X>X>X>X",
">X>X>X>X>X>X>Xe.%. .w.F._ K ~ K K J G D N 9 : : ; - - : 5 n D G H K H 4.D.%. .&.e.>X>X>X>X>X>X>X",
">X>X>X>X>X>X>X>X9.f.%.t.D.p.K H K K K H G S A M n n n N S D H K J P 8.D.@.} %.9.>X>X>X>X>X>X>X>X",
">X>X>X>X>X>X>X>X>Xe.&.} [ t.D.9.K K K K K J G G D G G G J J H I 6.D.t.} v w.u.>X>X>X>X>X>X>X>X>X",
">X>X>X>X>X>X>X>X>X>X>Xw. .  { t.D.a.4.I J H H H H H H H K 4.9.D.f.{ b %.w.>X>X>X>X>X>X>X>X>X>X>X",
">X>X>X>X>X>X>X>X>X>X>X>Xp.*. .  %.$.i.f.g.a.9.9.8.9.p.g.D.i.%.} %.o.*.u.>X>X>X>X>X>X>X>X>X>X>X>X",
">X>X>X>X>X>X>X>X>X>X>X>X>X>Xu.w.*.{ b } } #.%.t.w.%.#.&.#.[ #.@.u.p.>X>X>X>X>X>X>X>X>X>X>X>X>X>X",
">X>X>X>X>X>X>X>X>X>X>X>X>X>X>X>Xe.a.w.w. .@.X. .X. .@.i.t.w.u.9.>X>X>X>X>X>X>X>X>X>X>X>X>X>X>X>X",
">X>X>X>X>X>X>X>X>X>X>X>X>X>X>X>X>X>X>X>Xu.u.u.u.u.e.u.u.>X>X>X>X>X>X>X>X>X>X>X>X>X>X>X>X>X>X>X>X",
">X>X>X>X>X>X>X>X>X>X>X>X>X>X>X>X>X>X>X>X>X>X>X>X>X>X>X>X>X>X>X>X>X>X>X>X>X>X>X>X>X>X>X>X>X>X>X>X"
};
